<?xml version="1.0" encoding="utf-8"?>
<!-- Generator: Adobe Illustrator 16.0.0, SVG Export Plug-In . SVG Version: 6.00 Build 0)  -->
<!DOCTYPE svg PUBLIC "-//W3C//DTD SVG 1.1//EN" "http://www.w3.org/Graphics/SVG/1.1/DTD/svg11.dtd">
<svg version="1.1" id="Livello_1" xmlns="http://www.w3.org/2000/svg" xmlns:xlink="http://www.w3.org/1999/xlink" x="0px" y="0px"
	 width="720px" height="528px" viewBox="-10 -1 720 528" enable-background="new -10 -1 720 528" xml:space="preserve">
<path fill="#CBCACA" d="M286.544,415.814c0.011,0.001-8.3,80.285-9.088,86.455c-0.737,5.767-2.694,9.945-6.362,11.83
	c-3.266,1.679-16.062,6.279-18.177,7.28c-2.322,1.1-0.874,2.593-0.322,2.631c5.233,0.361,75.304,2.146,99.389,1.92
	s86.528-0.152,90.393-0.607c3.862-0.454,8.562-0.655,7.797-3.875c-0.241-1.016-13.243-3.109-17.301-7.349
	c-3.581-3.74-4.268-4.572-5.479-11.591c-1.737-10.062-9.971-85.784-9.971-85.784L286.544,415.814z"/>
<path fill="#AEADAD" d="M285.812,423.625l-1.562,15h135.438l-1.5-14.938L285.812,423.625z"/>
<g>
	<g>
		<path fill="#151515" d="M689.817-1H10.182C0.14-1-8,7.149-8,17.201V405.8c0,10.052,8.14,18.2,18.182,18.2h679.636
			C699.86,424,708,415.852,708,405.8V17.201C708,7.149,699.86-1,689.817-1z M678,389H22V29h656V389z"/>
	</g>
</g>
<path fill="#E5E5E4" d="M251.719,523.27l1.817,2.73h193.875l2.511-2.708L251.719,523.27z"/>
</svg>
