<?xml version="1.0" encoding="utf-8"?>
<!-- Generator: Adobe Illustrator 16.0.0, SVG Export Plug-In . SVG Version: 6.00 Build 0)  -->
<!DOCTYPE svg PUBLIC "-//W3C//DTD SVG 1.1//EN" "http://www.w3.org/Graphics/SVG/1.1/DTD/svg11.dtd">
<svg version="1.1" id="white" xmlns="http://www.w3.org/2000/svg" xmlns:xlink="http://www.w3.org/1999/xlink" x="0px" y="0px"
	 width="720px" height="576px" viewBox="0 0 720 576" enable-background="new 0 0 720 576" xml:space="preserve">
<g>
	<g>
		<path fill="#FFFFFF" d="M691.619,6.874L28.382,7C13.812,7,2,18.82,2,33.402v509.197C2,557.18,13.812,569,28.382,569l663.237-0.126
			c14.57,0,26.381-11.82,26.381-26.401V33.276C718,18.694,706.189,6.874,691.619,6.874z M648,504H72V72h576V504z"/>
	</g>
</g>
<path fill="#DADADA" d="M20.089,286.851c0-8.881,7.24-16.079,16.17-16.079c8.931,0,16.17,7.198,16.17,16.079
	c0,8.881-7.239,16.079-16.17,16.079C27.329,302.93,20.089,295.73,20.089,286.851z"/>
<g>
	<path fill="#C1BDBD" d="M40.438,279.932c4.724,0,8.973,2.015,11.929,5.226c-0.7-8.237-7.642-14.707-16.107-14.707
		c-8.931,0-16.17,7.198-16.17,16.079c0,4.184,1.608,7.993,4.241,10.854c-0.038-0.452-0.063-0.909-0.063-1.372
		C24.268,287.131,31.507,279.932,40.438,279.932z"/>
</g>
<path fill="none" stroke="#B4B4B4" stroke-miterlimit="10" d="M30.978,291.54v-9.044c0-0.556,0.453-1.005,1.011-1.005h9.096
	c0.558,0,1.011,0.449,1.011,1.005v9.044c0,0.556-0.453,1.006-1.011,1.006h-9.096C31.431,292.546,30.978,292.096,30.978,291.54z"/>
</svg>
