<?xml version="1.0" encoding="utf-8"?>
<!-- Generator: Adobe Illustrator 16.0.0, SVG Export Plug-In . SVG Version: 6.00 Build 0)  -->
<!DOCTYPE svg PUBLIC "-//W3C//DTD SVG 1.1//EN" "http://www.w3.org/Graphics/SVG/1.1/DTD/svg11.dtd">
<svg version="1.1" id="black" xmlns="http://www.w3.org/2000/svg" xmlns:xlink="http://www.w3.org/1999/xlink" x="0px" y="0px"
	 width="400px" height="800px" viewBox="-50 -100 400 800" enable-background="new -50 -100 400 800" xml:space="preserve">
<g id="BLACK" enable-background="new    ">
	<path fill="#353535" d="M-39.306,53.549V22.281c0-1.15,0.939-2.084,2.096-2.084h4.193c1.157,0,2.097,0.934,2.097,2.084v31.268
		c0,1.15-0.939,2.084-2.097,2.084h-4.193C-38.367,55.633-39.306,54.699-39.306,53.549z"/>
	<path fill="#555555" d="M-37.322,55.633c-1.157,0-2.096-0.934-2.096-2.084V22.281c0-1.15,0.938-2.084,2.096-2.084V55.633z"/>
	<path fill="#353535" d="M-39.443,118.769V95.501c0-1.15,0.938-2.084,2.096-2.084h4.192c1.158,0,2.097,0.934,2.097,2.084v23.268
		c0,1.15-0.938,2.084-2.097,2.084h-4.192C-38.504,120.854-39.443,119.919-39.443,118.769z"/>
	<path fill="#555555" d="M-37.458,120.854c-1.157,0-2.097-0.933-2.097-2.083V95.502c0-1.149,0.939-2.083,2.097-2.083V120.854z"/>
	<path fill="#353535" d="M-39.443,182.99v-23.268c0-1.15,0.938-2.084,2.096-2.084h4.192c1.158,0,2.097,0.934,2.097,2.084v23.268
		c0,1.15-0.938,2.084-2.097,2.084h-4.192C-38.504,185.074-39.443,184.141-39.443,182.99z"/>
	<path fill="#555555" d="M-37.458,185.074c-1.157,0-2.097-0.934-2.097-2.084v-23.268c0-1.15,0.939-2.084,2.097-2.084V185.074z"/>
	<path fill="#333333" d="M213.805-94.583h56.595c1.158,0,2.097,0.933,2.097,2.084v4.169c0,1.15-0.938,2.082-2.097,2.082h-56.595
		c-1.159,0-2.097-0.932-2.097-2.082v-4.169C211.708-93.65,212.646-94.583,213.805-94.583z"/>
	<g>
		<g>
			<path fill="#292929" d="M278.975-92.831H21.847c-30.871,0-55.897,24.886-55.897,55.585v666.322
				c0,30.697,25.026,55.582,55.897,55.582h257.127c30.869,0,55.897-24.885,55.897-55.582V-37.246
				C334.872-67.944,309.847-92.831,278.975-92.831z M309.992,567.986H-10V0h319.993V567.986z"/>
		</g>
	</g>
	<path fill="#363636" d="M116.879,620.963c0-18.42,15.016-33.352,33.538-33.352c18.524,0,33.54,14.932,33.54,33.352
		c0,18.418-15.017,33.35-33.54,33.35C131.895,654.312,116.879,639.383,116.879,620.963z"/>
	<g>
		<path fill="#323232" d="M159.085,606.613c9.797,0,18.608,4.18,24.741,10.838c-1.453-17.084-15.851-30.504-33.409-30.504
			c-18.523,0-33.538,14.93-33.538,33.35c0,8.678,3.335,16.58,8.797,22.512c-0.079-0.938-0.13-1.885-0.13-2.846
			C125.546,621.543,140.561,606.613,159.085,606.613z"/>
	</g>
	<path fill="none" stroke="#5E5E5E" stroke-width="2" stroke-miterlimit="10" d="M139.464,630.689v-18.76
		c0-1.15,0.938-2.082,2.096-2.082h18.866c1.156,0,2.097,0.932,2.097,2.082v18.76c0,1.15-0.94,2.084-2.097,2.084H141.56
		C140.403,632.775,139.464,631.842,139.464,630.689z"/>
	<path fill="#5B5B5B" d="M272.468-92.485c0-1.151-0.938-2.083-2.096-2.083h-56.596c-1.158,0-2.097,0.933-2.097,2.083H272.468z"/>
	<circle fill="#373737" cx="151.33" cy="-61.333" r="6.667"/>
	<path fill="#373737" d="M118.905-32.047c0-3.837,3.129-6.947,6.987-6.947h51.706c3.859,0,6.986,3.11,6.986,6.947
		c0,3.838-3.13,6.948-6.986,6.948h-51.706C122.033-25.098,118.905-28.209,118.905-32.047z"/>
	<path fill="#282828" d="M125.314-31.697c0-0.96,0.781-1.737,1.746-1.737h51.008c0.964,0,1.745,0.777,1.745,1.737
		c0,0.959-0.781,1.738-1.745,1.738H127.06C126.095-29.959,125.314-30.738,125.314-31.697z"/>
</g>
</svg>
